<svg xmlns="http://www.w3.org/2000/svg" width="24" height="24" viewBox="0 0 24 24" fill="none">
  <path d="M21 9.5H20.115C19.96 8.99 19.755 8.5 19.505 8.03L20.13 7.405C20.415 7.12 20.57 6.745 20.57 6.345C20.57 5.945 20.415 5.565 20.13 5.285L18.715 3.87C18.13 3.285 17.18 3.285 16.595 3.87L15.97 4.495C15.5 4.245 15.01 4.04 14.5 3.885V3C14.5 2.175 13.825 1.5 13 1.5H11C10.175 1.5 9.5 2.175 9.5 3V3.885C8.99 4.04 8.5 4.245 8.03 4.495L7.405 3.87C6.82 3.285 5.87 3.285 5.285 3.87L3.87 5.285C3.585 5.57 3.43 5.945 3.43 6.345C3.43 6.745 3.585 7.12 3.87 7.405L4.495 8.03C4.245 8.5 4.04 8.99 3.885 9.5H3C2.175 9.5 1.5 10.175 1.5 11V13C1.5 13.825 2.175 14.5 3 14.5H3.885C4.04 15.01 4.245 15.5 4.495 15.97L3.87 16.595C3.585 16.88 3.43 17.255 3.43 17.655C3.43 18.055 3.585 18.435 3.87 18.715L5.285 20.13C5.87 20.715 6.82 20.715 7.405 20.13L8.03 19.505C8.5 19.755 8.99 19.955 9.5 20.115V21C9.5 21.825 10.175 22.5 11 22.5H13C13.825 22.5 14.5 21.825 14.5 21V20.115C15.01 19.96 15.5 19.755 15.97 19.505L16.595 20.13C17.18 20.715 18.13 20.715 18.715 20.13L20.13 18.715C20.415 18.43 20.57 18.055 20.57 17.655C20.57 17.255 20.415 16.88 20.13 16.595L19.505 15.97C19.755 15.5 19.955 15.01 20.115 14.5H21C21.825 14.5 22.5 13.825 22.5 13V11C22.5 10.175 21.825 9.5 21 9.5ZM21.5 13C21.5 13.275 21.275 13.5 21 13.5H19.74C19.51 13.5 19.315 13.655 19.255 13.875C19.08 14.555 18.81 15.205 18.455 15.805C18.34 16 18.37 16.25 18.53 16.415L19.42 17.305C19.515 17.4 19.565 17.525 19.565 17.66C19.565 17.795 19.515 17.92 19.42 18.015L18.005 19.43C17.81 19.625 17.495 19.625 17.3 19.43L16.41 18.54C16.25 18.38 16 18.35 15.8 18.465C15.2 18.82 14.55 19.09 13.87 19.265C13.655 19.31 13.5 19.51 13.5 19.74V21C13.5 21.275 13.275 21.5 13 21.5H11C10.725 21.5 10.5 21.275 10.5 21V19.74C10.5 19.51 10.345 19.315 10.125 19.255C9.445 19.08 8.795 18.81 8.195 18.455C8.115 18.41 8.03 18.385 7.94 18.385C7.81 18.385 7.68 18.435 7.585 18.53L6.695 19.42C6.5 19.615 6.185 19.615 5.99 19.42L4.575 18.005C4.48 17.91 4.43 17.785 4.43 17.65C4.43 17.515 4.48 17.39 4.575 17.295L5.465 16.405C5.625 16.245 5.66 15.995 5.54 15.795C5.185 15.195 4.915 14.545 4.74 13.865C4.69 13.655 4.49 13.5 4.26 13.5H3C2.725 13.5 2.5 13.275 2.5 13V11C2.5 10.725 2.725 10.5 3 10.5H4.26C4.49 10.5 4.685 10.345 4.745 10.125C4.92 9.445 5.19 8.795 5.545 8.195C5.66 8 5.63 7.75 5.47 7.585L4.58 6.695C4.485 6.6 4.435 6.475 4.435 6.34C4.435 6.205 4.485 6.08 4.58 5.985L5.995 4.57C6.19 4.375 6.505 4.375 6.7 4.57L7.59 5.46C7.75 5.62 8 5.65 8.2 5.535C8.8 5.18 9.45 4.91 10.13 4.735C10.345 4.69 10.5 4.49 10.5 4.26V3C10.5 2.725 10.725 2.5 11 2.5H13C13.275 2.5 13.5 2.725 13.5 3V4.26C13.5 4.49 13.655 4.685 13.875 4.745C14.555 4.92 15.205 5.19 15.805 5.545C16 5.66 16.25 5.63 16.415 5.47L17.305 4.58C17.5 4.385 17.815 4.385 18.01 4.58L19.425 5.995C19.52 6.09 19.57 6.215 19.57 6.35C19.57 6.485 19.52 6.61 19.425 6.705L18.535 7.595C18.375 7.755 18.34 8.005 18.46 8.205C18.815 8.805 19.085 9.455 19.26 10.135C19.315 10.355 19.515 10.51 19.745 10.51H21C21.275 10.51 21.5 10.735 21.5 11.01V13Z" fill="white"/>
  <path d="M12 8C9.795 8 8 9.795 8 12C8 14.205 9.795 16 12 16C14.205 16 16 14.205 16 12C16 9.795 14.205 8 12 8ZM12 15C10.345 15 9 13.655 9 12C9 10.345 10.345 9 12 9C13.655 9 15 10.345 15 12C15 13.655 13.655 15 12 15Z" fill="white"/>
</svg>