<svg xmlns="http://www.w3.org/2000/svg" width="20" height="14" viewBox="0 0 20 14" fill="none">
  <path d="M18.6373 5.39245C17.7857 4.54078 16.6146 4.02978 15.3158 4.02978C15.1668 4.02978 15.0177 4.02978 14.8687 4.05107C14.4216 3.07165 13.7189 2.26256 12.8673 1.6664C11.8878 0.985058 10.7168 0.601807 9.48187 0.601807C8.01273 0.601807 6.67135 1.1341 5.60676 2.02835C4.66993 2.83744 3.98859 3.92332 3.6905 5.20083C2.73238 5.30729 1.8807 5.73312 1.24195 6.37188C0.496739 7.11709 0.0283203 8.13909 0.0283203 9.28885C0.0283203 10.4173 0.496739 11.4606 1.24195 12.2058C1.98716 12.9297 3.00917 13.3982 4.15892 13.3982H15.3158C16.6146 13.3982 17.7857 12.8659 18.6373 12.0355C19.489 11.1838 20 10.0128 20 8.71397C20 7.41517 19.4677 6.24412 18.6373 5.39245ZM17.7857 11.2264C17.1256 11.8864 16.2314 12.2697 15.2519 12.2697H4.15892C3.32854 12.2697 2.56204 11.929 2.02975 11.3754C1.47616 10.8219 1.13549 10.0766 1.13549 9.24626C1.13549 8.43718 1.47616 7.69197 2.00845 7.13838C2.56204 6.58479 3.30725 6.24412 4.13763 6.24412C4.2228 6.24412 4.30797 6.22283 4.37184 6.18025H4.39313C4.52088 6.09508 4.60605 5.96733 4.62734 5.797C4.79768 4.60466 5.41514 3.58265 6.26681 2.85873C7.11848 2.13481 8.22565 1.68769 9.41799 1.68769C10.44 1.68769 11.3981 2.00706 12.1859 2.56065C12.8247 3.00778 13.357 3.58265 13.7189 4.28528C13.5912 4.32787 13.4634 4.39174 13.3357 4.43432C12.7395 4.71112 12.2072 5.09437 11.7601 5.60537C11.5685 5.83958 11.5898 6.18025 11.8027 6.37188C12.0369 6.5635 12.3775 6.54221 12.5692 6.32929C12.9098 5.94604 13.3144 5.64796 13.7828 5.43504C14.2299 5.22212 14.7409 5.11566 15.2519 5.11566C16.2526 5.11566 17.1469 5.52021 17.7857 6.15896C18.4457 6.819 18.829 7.71326 18.829 8.69268C18.829 9.69339 18.4244 10.5876 17.7857 11.2264Z" fill="#131647"/>
</svg>