<svg xmlns="http://www.w3.org/2000/svg" width="17" height="16" viewBox="0 0 17 16" fill="none">
  <mask id="mask0_18_255" style="mask-type:luminance" maskUnits="userSpaceOnUse" x="0" y="0" width="17" height="16">
    <path d="M0.314453 0H16.3145V16H0.314453V0Z" fill="white"/>
  </mask>
  <g mask="url(#mask0_18_255)">
    <path d="M5.59681 5.26359C5.59681 6.29459 4.76103 7.13037 3.73003 7.13037C2.69906 7.13037 1.86328 6.29459 1.86328 5.26359C1.86328 4.23259 3.73003 1.80181 3.73003 1.80181C3.73003 1.80181 5.59681 4.23259 5.59681 5.26359Z" stroke="#131647" stroke-width="0.9375" stroke-miterlimit="10"/>
    <path d="M14.7644 3.28629C14.7644 4.03617 14.1565 4.64404 13.4066 4.64404C12.6567 4.64404 12.0488 4.03617 12.0488 3.28629C12.0488 2.53642 13.4066 0.768418 13.4066 0.768418C13.4066 0.768418 14.7644 2.53642 14.7644 3.28629Z" stroke="#131647" stroke-width="0.9375" stroke-miterlimit="10"/>
    <path d="M12.7453 11.8477C12.7453 13.8818 11.0963 15.5308 9.06209 15.5308C7.02791 15.5308 5.37891 13.8818 5.37891 11.8477C5.37891 9.81351 9.06209 5.01748 9.06209 5.01748C9.06209 5.01748 12.7453 9.81351 12.7453 11.8477Z" stroke="#131647" stroke-width="0.9375" stroke-miterlimit="10"/>
  </g>
</svg>